<svg width="129" height="54" viewBox="0 0 129 54" fill="none" xmlns="http://www.w3.org/2000/svg">
<g clip-path="url(#clip0_225_5107)">
<path d="M54.3158 17.8659C54.3158 11.2509 58.843 6.75 65.2197 6.75C69.9316 6.75 73.5979 9.1989 74.9531 13.7322L70.5481 15.2928C69.6546 12.7197 67.7752 11.097 65.2197 11.097C61.8005 11.097 59.3672 13.6377 59.3672 17.8632C59.3672 22.0887 61.8005 24.6294 65.2197 24.6294C67.7752 24.6294 69.6546 23.0067 70.5481 20.4336L74.9531 21.9969C73.5979 26.5275 69.9316 28.9791 65.2197 28.9791C58.843 28.9791 54.3158 24.4782 54.3158 17.8659Z" fill="#06072E"/>
<path d="M94.2948 19.6503C94.2948 24.918 90.509 28.582 85.3436 28.582C80.2107 28.582 76.4249 24.918 76.4249 19.6503C76.4249 14.3826 80.208 10.7188 85.3436 10.7188C90.5117 10.7188 94.2948 14.3826 94.2948 19.6503ZM81.4301 19.6503C81.4301 22.6608 83.1085 24.3295 85.3463 24.3295C87.6167 24.3295 89.3276 22.6608 89.3276 19.6503C89.3276 16.6398 87.6167 15.0036 85.3463 15.0036C83.1085 15.0064 81.4301 16.6398 81.4301 19.6503Z" fill="#06072E"/>
<path d="M113.64 19.6503C113.64 24.918 109.854 28.582 104.688 28.582C99.5555 28.582 95.7697 24.918 95.7697 19.6503C95.7697 14.3826 99.5527 10.7188 104.688 10.7188C109.856 10.7188 113.64 14.3826 113.64 19.6503ZM100.775 19.6503C100.775 22.6608 102.453 24.3295 104.691 24.3295C106.961 24.3295 108.672 22.6608 108.672 19.6503C108.672 16.6398 106.961 15.0036 104.691 15.0036C102.453 15.0064 100.775 16.6398 100.775 19.6503Z" fill="#06072E"/>
<path d="M115.117 23.7137V7.14648H119.677V23.4356C119.677 24.2942 120.046 24.7208 120.877 24.7208H121.985V28.5791H119.951C116.904 28.5818 115.117 26.7755 115.117 23.7137Z" fill="#06072E"/>
<path d="M75.8249 32.168V53.6033H71.018V39.701L65.5972 46.9883H64.7961L59.3455 39.701V53.6033H54.5413V32.168H59.0984L65.2578 40.4975L71.2651 32.168H75.8249Z" fill="#06072E"/>
<path d="M93.2276 43.5892V53.6008H89.0399V52.0699C88.0541 53.3551 86.4518 53.9977 84.4203 53.9977C80.6019 53.9977 78.3533 52.0699 78.3533 49.0054C78.3533 46.0651 80.7241 44.0131 84.8223 44.0131C86.4843 44.0131 87.8096 44.4721 88.7031 45.2983V44.0131C88.7031 42.2365 87.7472 41.2888 85.7457 41.2888C84.1433 41.2888 83.0652 42.1474 82.4813 43.6162L78.7226 41.9935C79.923 38.5348 82.7583 37.2793 85.9303 37.2793C89.9008 37.282 93.2276 39.334 93.2276 43.5892ZM88.79 48.9487C88.79 47.785 87.6494 47.1127 85.895 47.1127C84.1406 47.1127 83 47.7877 83 48.9487C83 50.1124 84.1406 50.7874 85.895 50.7874C87.6521 50.7847 88.79 50.1124 88.79 48.9487Z" fill="#06072E"/>
<path d="M101.975 41.2323V47.5395C101.975 49.0083 102.562 49.7454 103.73 49.7454H105.454V53.6037H103.143C99.5393 53.6037 97.4155 51.3978 97.4155 47.7258V41.235H94.5205V37.7142H97.4155V34.8063L101.973 32.4492V37.7169H105.454V41.2377H101.975V41.2323Z" fill="#06072E"/>
<path d="M118.392 47.3559L122.211 48.7032C121.04 52.2564 118.208 54.0006 114.818 54.0006C109.982 54.0006 106.687 50.6634 106.687 45.6414C106.687 40.7112 109.922 37.2822 114.571 37.2822C119.098 37.2822 122.211 40.6815 122.211 45.6414C122.211 45.9465 122.211 46.3461 122.181 46.6512H111.31C111.557 49.1622 112.787 50.172 114.606 50.172C116.391 50.1747 117.621 49.3782 118.392 47.3559ZM111.432 43.6515H117.624C117.192 41.6913 116.114 40.8651 114.574 40.8651C112.879 40.8651 111.831 41.7534 111.432 43.6515Z" fill="#06072E"/>
<path d="M51.6 34.6846H0V38.7724H51.6V34.6846Z" fill="#0355D6"/>
<path d="M0 38.772V34.6842C19.2359 34.6842 34.887 19.1241 34.887 0H38.9987C38.9987 21.3786 21.5036 38.772 0 38.772Z" fill="#0355D6"/>
<path d="M0 31.5306V27.4428C15.2193 27.4428 27.6033 15.1335 27.6033 0H31.715C31.715 17.3853 17.487 31.5306 0 31.5306Z" fill="#FFB402"/>
<path d="M38.6185 19.751H34.5068V54.0005H38.6185V19.751Z" fill="#0355D6"/>
<path d="M38.6212 54.0004H34.5095C34.5095 42.628 41.538 34.6846 51.6027 34.6846V38.7724C42.6352 38.7724 38.6212 46.4215 38.6212 54.0004Z" fill="#DE0101"/>
<path d="M45.6823 53.9999H41.5706C41.5706 49.5422 42.8741 42.0605 51.6027 42.0605V46.1483C48.8434 46.151 45.6823 47.042 45.6823 53.9999Z" fill="#00CA72"/>
<path d="M129 32.3293C128.43 32.3347 127.859 32.3374 127.289 32.3428C127.216 32.3428 127.14 32.3428 127.047 32.3428C127.047 32.7748 127.047 33.1798 127.047 33.5848C127.047 33.898 126.979 34.1869 126.795 34.4407C126.526 34.8079 126.162 34.9861 125.717 34.9942C125.521 34.9969 125.326 34.9942 125.095 34.9942C125.095 35.1724 125.087 35.3371 125.097 35.5018C125.154 36.4333 124.437 37.0138 123.701 36.9868C123.422 36.976 123.175 37.0975 122.979 37.3162C122.553 37.7941 122.121 38.2639 121.678 38.7499C121.358 38.4475 121.048 38.1559 120.725 37.8508C121.154 37.3783 121.586 36.922 121.993 36.4468C122.297 36.0904 122.667 35.8636 123.107 35.7475C123.324 35.6908 123.552 35.6692 123.797 35.6287C123.797 35.4424 123.797 35.2507 123.797 35.059C123.802 34.2463 124.348 33.6847 125.146 33.6712C125.336 33.6685 125.524 33.6712 125.736 33.6712C125.741 33.5875 125.746 33.52 125.746 33.4525C125.746 33.1042 125.744 32.7532 125.749 32.4049C125.76 31.5787 126.314 31.0252 127.121 31.0198C127.748 31.0171 128.375 31.0144 129.003 31.0117C129 31.4491 129 31.8892 129 32.3293Z" fill="#0355D6"/>
<path d="M129 36.6737C128.764 36.9032 128.525 37.1327 128.291 37.3649C128.204 37.4513 128.128 37.5458 128.058 37.6241C127.726 37.2839 127.411 36.9599 127.112 36.6548C127.403 36.3551 127.721 36.0284 128.044 35.6963C128.345 35.9933 128.671 36.3146 128.997 36.6359C129 36.6467 129 36.6602 129 36.6737Z" fill="#00CA72"/>
<path d="M122.553 39.5687C122.922 39.377 123.283 39.1718 123.658 38.9963C124.511 38.5994 125.396 38.3186 126.347 38.3078C127.542 38.2943 128.332 39.0908 128.343 40.3058C128.345 40.6352 128.351 40.9646 128.34 41.294C128.324 41.8043 127.962 42.212 127.495 42.2633C126.998 42.3173 126.564 42.0338 126.433 41.5559C126.401 41.4398 126.395 41.3129 126.395 41.1914C126.39 40.9079 126.398 40.6217 126.393 40.3382C126.385 39.8792 126.129 39.6227 125.678 39.6227C124.704 39.6227 123.726 39.6254 122.751 39.6254C122.691 39.6254 122.631 39.6254 122.572 39.6254C122.566 39.6065 122.561 39.5876 122.553 39.5687Z" fill="#DE0101"/>
<path d="M119.908 36.8983C119.908 36.2206 119.908 35.5429 119.908 34.8652C119.908 34.4845 119.908 34.1038 119.905 33.7231C119.902 33.2776 119.647 33.0157 119.21 33.0076C118.873 33.0022 118.536 33.0157 118.202 32.9968C117.784 32.9752 117.447 32.6836 117.336 32.2732C117.227 31.8709 117.376 31.4335 117.724 31.2013C117.846 31.1203 118.001 31.042 118.142 31.0393C118.661 31.0285 119.188 30.9961 119.696 31.0744C120.581 31.2121 121.17 31.9681 121.192 32.9077C121.214 33.8149 120.986 34.6735 120.641 35.497C120.437 35.9803 120.193 36.4447 119.967 36.9199C119.948 36.9145 119.927 36.9064 119.908 36.8983Z" fill="#FFB402"/>
<path d="M123.463 32.3081C123.153 31.9949 122.841 31.6763 122.542 31.3766C122.854 31.058 123.172 30.7394 123.473 30.4316C123.761 30.7259 124.079 31.0499 124.386 31.3658C124.098 31.6628 123.78 31.9841 123.463 32.3081Z" fill="#00CA72"/>
<path d="M116.358 33.0693C116.657 33.3744 116.972 33.693 117.265 33.9927C116.955 34.3059 116.635 34.6299 116.325 34.9458C116.038 34.6515 115.722 34.3275 115.421 34.0224C115.725 33.7146 116.04 33.3933 116.358 33.0693Z" fill="#00CA72"/>
<path d="M125.396 43.9345C125.103 43.6348 124.79 43.3189 124.492 43.0138C124.799 42.7006 125.116 42.3793 125.415 42.0742C125.706 42.3712 126.021 42.6925 126.314 42.9949C126.032 43.2865 125.711 43.6132 125.396 43.9345Z" fill="#00CA72"/>
</g>
<defs>
<clipPath id="clip0_225_5107">
<rect width="129" height="54" fill="white"/>
</clipPath>
</defs>
</svg>
